<svg width="140" height="34" viewBox="0 0 140 34" fill="none" xmlns="http://www.w3.org/2000/svg">
<path d="M14.3232 18.5977H15.999C15.999 19.722 15.6768 20.5671 15.0322 21.1328C14.3877 21.6914 13.5104 21.9707 12.4004 21.9707C11.6341 21.9707 10.9681 21.7952 10.4023 21.4443C9.84375 21.0934 9.41048 20.6064 9.10254 19.9834C8.80176 19.3604 8.65137 18.637 8.65137 17.8135V16.5352C8.65137 15.7116 8.80176 14.9883 9.10254 14.3652C9.41048 13.7422 9.84375 13.2552 10.4023 12.9043C10.9681 12.5534 11.6341 12.3779 12.4004 12.3779C13.5104 12.3779 14.3877 12.6608 15.0322 13.2266C15.6839 13.7852 16.0098 14.6266 16.0098 15.751H14.334C14.334 15.0635 14.1693 14.5729 13.8398 14.2793C13.5176 13.9785 13.0378 13.8281 12.4004 13.8281C11.9421 13.8281 11.5589 13.9427 11.251 14.1719C10.943 14.401 10.7103 14.7197 10.5527 15.1279C10.3952 15.529 10.3164 15.9945 10.3164 16.5244V17.8135C10.3164 18.3434 10.3952 18.8125 10.5527 19.2207C10.7103 19.6289 10.943 19.9476 11.251 20.1768C11.5589 20.4059 11.9421 20.5205 12.4004 20.5205C13.0378 20.5205 13.5176 20.3737 13.8398 20.0801C14.1621 19.7865 14.3232 19.2923 14.3232 18.5977ZM6.23438 17.1689C6.23438 18.1143 6.39551 18.9951 6.71777 19.8115C7.0472 20.6208 7.50195 21.3298 8.08203 21.9385C8.66211 22.5472 9.33171 23.0234 10.0908 23.3672C10.8571 23.7038 11.6771 23.8721 12.5508 23.8721C13.4245 23.8721 14.2409 23.7038 15 23.3672C15.7591 23.0234 16.4287 22.5472 17.0088 21.9385C17.5889 21.3298 18.04 20.6208 18.3623 19.8115C18.6917 18.9951 18.8564 18.1143 18.8564 17.1689C18.8564 16.2236 18.6917 15.3464 18.3623 14.5371C18.04 13.7207 17.5889 13.0117 17.0088 12.4102C16.4287 11.8014 15.7591 11.3288 15 10.9922C14.2409 10.6556 13.4245 10.4873 12.5508 10.4873C11.6771 10.4873 10.8571 10.6556 10.0908 10.9922C9.33171 11.3288 8.66211 11.8014 8.08203 12.4102C7.50195 13.0117 7.0472 13.7207 6.71777 14.5371C6.39551 15.3464 6.23438 16.2236 6.23438 17.1689ZM4.92383 17.1689C4.92383 16.0303 5.12077 14.974 5.51465 14C5.90853 13.026 6.45638 12.1774 7.1582 11.4541C7.86003 10.7236 8.66927 10.1579 9.58594 9.75684C10.5098 9.34863 11.498 9.14453 12.5508 9.14453C13.6035 9.14453 14.5882 9.34863 15.5049 9.75684C16.4287 10.1579 17.238 10.7236 17.9326 11.4541C18.6344 12.1774 19.1823 13.026 19.5762 14C19.9772 14.974 20.1777 16.0303 20.1777 17.1689C20.1777 18.3076 19.9772 19.3639 19.5762 20.3379C19.1823 21.3118 18.6344 22.1641 17.9326 22.8945C17.238 23.625 16.4287 24.1943 15.5049 24.6025C14.5882 25.0107 13.6035 25.2148 12.5508 25.2148C11.498 25.2148 10.5098 25.0107 9.58594 24.6025C8.66927 24.1943 7.86003 23.625 7.1582 22.8945C6.45638 22.1641 5.90853 21.3118 5.51465 20.3379C5.12077 19.3639 4.92383 18.3076 4.92383 17.1689Z" fill="#262626"/>
<path d="M42.7148 11.0513C43.4978 11.0513 44.1543 11.1958 44.6836 11.4858C45.094 11.7107 45.4461 12.0112 45.7432 12.3843L45.8682 11.269H48.707V22.644C48.707 23.717 48.4677 24.6268 47.9893 25.3735C47.518 26.1275 46.858 26.6963 46.0098 27.0806C45.1615 27.4721 44.1755 27.6685 43.0518 27.6685C42.5589 27.6684 42.0372 27.6026 41.4863 27.4722C40.9426 27.3417 40.4202 27.1393 39.9199 26.8638C39.4271 26.5884 39.0141 26.2402 38.6807 25.8198L40.0615 23.9712C40.424 24.3915 40.8449 24.7178 41.3232 24.9497C41.8015 25.1888 42.3305 25.308 42.9102 25.3081C43.4756 25.3081 43.9542 25.2029 44.3457 24.9927C44.7372 24.7897 45.0388 24.4891 45.249 24.0903C45.4592 23.6989 45.5645 23.2237 45.5645 22.6655V22.0171C45.275 22.3431 44.9419 22.6105 44.5635 22.8179C44.0415 23.1078 43.4182 23.2534 42.6934 23.2534C41.9684 23.2534 41.3119 23.1044 40.7246 22.8071C40.1447 22.5099 39.6486 22.0926 39.2354 21.5562C38.8222 21.0197 38.5031 20.3894 38.2783 19.6646C38.0608 18.9396 37.9512 18.149 37.9512 17.2935V17.0649C37.9512 16.1661 38.0609 15.3508 38.2783 14.6187C38.503 13.8793 38.8177 13.2445 39.2236 12.7153C39.6369 12.1861 40.1374 11.7758 40.7246 11.4858C41.3118 11.1959 41.9754 11.0513 42.7148 11.0513ZM131.324 11.0513C132.071 11.0513 132.727 11.1923 133.293 11.4751C133.866 11.7578 134.344 12.1646 134.729 12.6938C135.12 13.223 135.414 13.8534 135.609 14.5854C135.812 15.3177 135.914 16.1302 135.914 17.022V17.2505C135.914 18.1057 135.812 18.8993 135.609 19.6313C135.414 20.3635 135.123 21.0017 134.739 21.5454C134.355 22.0819 133.876 22.5026 133.304 22.8071C132.738 23.1044 132.085 23.2534 131.346 23.2534C130.628 23.2534 130.005 23.1078 129.476 22.8179C129.095 22.6093 128.758 22.3399 128.464 22.0112V27.5591H125.332V11.269H128.236L128.353 12.4282C128.671 12.0357 129.042 11.721 129.465 11.4858C129.994 11.196 130.614 11.0513 131.324 11.0513ZM31.2744 11.0513C32.1878 11.0513 32.9995 11.2039 33.71 11.5083C34.4204 11.8128 34.9788 12.2695 35.3848 12.8784C35.798 13.4873 36.0048 14.2483 36.0049 15.1616V20.1968C36.0049 20.8419 36.0453 21.3714 36.125 21.7847C36.2048 22.1907 36.3204 22.5466 36.4727 22.8511V23.0356H33.3076C33.1647 22.7362 33.0556 22.3662 32.9766 21.9263C32.8647 22.056 32.7447 22.1842 32.6123 22.3071C32.3078 22.5826 31.9414 22.8105 31.5137 22.9917C31.0859 23.1657 30.5784 23.2534 29.9912 23.2534C29.2445 23.2534 28.566 23.1044 27.957 22.8071C27.3555 22.5026 26.8776 22.0853 26.5225 21.5562C26.1746 21.0198 26.0001 20.4113 26 19.73C26 19.1138 26.1157 18.5659 26.3477 18.0874C26.5796 17.6089 26.9207 17.2066 27.3701 16.8804C27.8267 16.547 28.3959 16.2971 29.0771 16.1304C29.7586 15.9564 30.5493 15.8687 31.4482 15.8687H32.8516V15.1401C32.8515 14.7632 32.7892 14.4406 32.666 14.1724C32.5428 13.897 32.3508 13.683 32.0898 13.5308C31.8362 13.3786 31.5064 13.3023 31.1006 13.3022C30.7526 13.3022 30.451 13.3636 30.1973 13.4868C29.9436 13.6028 29.7481 13.7739 29.6104 13.9985C29.4727 14.216 29.4043 14.4738 29.4043 14.771H26.2715C26.2715 14.2708 26.3882 13.7957 26.6201 13.3462C26.8521 12.8968 27.1888 12.5013 27.6309 12.1606C28.0731 11.8127 28.5991 11.541 29.208 11.3452C29.8243 11.1495 30.5132 11.0513 31.2744 11.0513ZM56.2002 11.0513C57.0917 11.0513 57.8852 11.2039 58.5811 11.5083C59.2769 11.8055 59.8608 12.222 60.332 12.7583C60.8105 13.2948 61.1734 13.9294 61.4199 14.6616C61.6664 15.3866 61.79 16.1807 61.79 17.0435V17.272C61.79 18.1274 61.6664 18.9216 61.4199 19.6538C61.1734 20.3786 60.8104 21.0125 60.332 21.5562C59.8609 22.0926 59.2814 22.5099 58.5928 22.8071C57.904 23.1044 57.1134 23.2534 56.2217 23.2534C55.3299 23.2534 54.5358 23.1044 53.8398 22.8071C53.1512 22.5099 52.5673 22.0926 52.0889 21.5562C51.6179 21.0126 51.2591 20.3785 51.0127 19.6538C50.7662 18.9216 50.6426 18.1274 50.6426 17.272V17.0435C50.6426 16.1807 50.7662 15.3866 51.0127 14.6616C51.2592 13.9295 51.6177 13.2947 52.0889 12.7583C52.5601 12.2219 53.1404 11.8055 53.8291 11.5083C54.5179 11.2038 55.3084 11.0513 56.2002 11.0513ZM68.7715 11.0513C69.6632 11.0513 70.4573 11.2038 71.1533 11.5083C71.8492 11.8055 72.4331 12.2219 72.9043 12.7583C73.3828 13.2947 73.7447 13.9295 73.9912 14.6616C74.2377 15.3866 74.3613 16.1807 74.3613 17.0435V17.272C74.3613 18.1274 74.2377 18.9216 73.9912 19.6538C73.7448 20.3785 73.3825 21.0126 72.9043 21.5562C72.4331 22.0926 71.8527 22.5099 71.1641 22.8071C70.4753 23.1044 69.6847 23.2534 68.793 23.2534C67.9013 23.2534 67.1071 23.1044 66.4111 22.8071C65.7225 22.5099 65.1386 22.0926 64.6602 21.5562C64.1892 21.0126 63.8304 20.3785 63.584 19.6538C63.3375 18.9216 63.2139 18.1274 63.2139 17.272V17.0435C63.2139 16.1807 63.3375 15.3866 63.584 14.6616C63.8305 13.9294 64.1889 13.2948 64.6602 12.7583C65.1313 12.2219 65.7118 11.8055 66.4004 11.5083C67.0891 11.2038 67.8797 11.0513 68.7715 11.0513ZM86.3887 23.0356H83.5508L83.3955 21.7798C83.0593 22.2157 82.6622 22.5622 82.2021 22.8179C81.6801 23.1079 81.071 23.2534 80.375 23.2534C79.6429 23.2534 78.9906 23.1043 78.418 22.8071C77.8525 22.5099 77.3739 22.0927 76.9824 21.5562C76.5983 21.0198 76.3046 20.3894 76.1016 19.6646C75.8986 18.9396 75.7969 18.149 75.7969 17.2935V17.0649C75.7969 16.1661 75.8986 15.3508 76.1016 14.6187C76.3046 13.8792 76.6017 13.2446 76.9932 12.7153C77.3847 12.1861 77.8667 11.7758 78.4395 11.4858C79.0121 11.196 79.6645 11.0513 80.3965 11.0513C81.0852 11.0513 81.6874 11.1959 82.2021 11.4858C82.5909 11.7018 82.9351 11.9867 83.2354 12.3394V6.33154H86.3887V23.0356ZM93.2832 11.0513C94.3053 11.0513 95.1829 11.2144 95.915 11.5405C96.6545 11.8668 97.2208 12.3164 97.6123 12.8892C98.0109 13.4546 98.2099 14.0999 98.21 14.8247H95.0781C95.0781 14.5203 95.0123 14.2485 94.8818 14.0093C94.7586 13.7629 94.5631 13.5708 94.2949 13.4331C94.0339 13.2881 93.693 13.2153 93.2725 13.2153C92.9247 13.2154 92.6238 13.2767 92.3701 13.3999C92.1165 13.5158 91.9209 13.6756 91.7832 13.8784C91.6527 14.0742 91.5869 14.2925 91.5869 14.5317C91.587 14.7128 91.6238 14.8761 91.6963 15.021C91.776 15.1585 91.9026 15.2851 92.0762 15.4009C92.2502 15.5169 92.4755 15.6265 92.751 15.728C93.0337 15.8222 93.3818 15.9091 93.7949 15.9888C94.643 16.1627 95.4005 16.3907 96.0674 16.6733C96.7342 16.9488 97.2638 17.3259 97.6553 17.8042C98.0468 18.2754 98.2422 18.8961 98.2422 19.6646C98.2421 20.1865 98.1265 20.6652 97.8945 21.1001C97.6626 21.5349 97.3293 21.9156 96.8945 22.2417C96.4596 22.5607 95.9371 22.8105 95.3281 22.9917C94.7265 23.1657 94.0488 23.2534 93.2949 23.2534C92.2002 23.2534 91.272 23.057 90.5107 22.6655C89.7568 22.2741 89.1835 21.778 88.792 21.1763C88.4077 20.5673 88.2158 19.9432 88.2158 19.3052H91.1846C91.1991 19.7328 91.3079 20.0774 91.5107 20.3384C91.7209 20.5993 91.9858 20.7878 92.3047 20.9038C92.6308 21.0198 92.9825 21.0776 93.3594 21.0776C93.7654 21.0776 94.1028 21.0233 94.3711 20.9146C94.6393 20.7986 94.8427 20.6469 94.9805 20.4585C95.1255 20.2627 95.1973 20.0374 95.1973 19.7837C95.1972 19.5591 95.1323 19.3564 95.002 19.1753C94.8715 18.994 94.6287 18.8266 94.2734 18.6743C93.9255 18.5148 93.4214 18.3702 92.7617 18.2397C92.1672 18.1092 91.6124 17.9462 91.0977 17.7505C90.5904 17.5476 90.1484 17.3046 89.7715 17.022C89.4017 16.7392 89.1116 16.4052 88.9014 16.021C88.6911 15.6295 88.5859 15.1834 88.5859 14.6831C88.586 14.1903 88.6912 13.7264 88.9014 13.2915C89.1188 12.8567 89.4266 12.4726 89.8252 12.1392C90.2312 11.7984 90.7247 11.5337 91.3047 11.3452C91.8918 11.1495 92.5512 11.0513 93.2832 11.0513ZM117.817 11.0513C118.709 11.0513 119.503 11.2038 120.199 11.5083C120.895 11.8055 121.479 12.2219 121.95 12.7583C122.429 13.2948 122.792 13.9294 123.038 14.6616C123.285 15.3866 123.407 16.1807 123.407 17.0435V17.272C123.407 18.1274 123.285 18.9216 123.038 19.6538C122.792 20.3786 122.429 21.0125 121.95 21.5562C121.479 22.0927 120.899 22.5099 120.21 22.8071C119.521 23.1043 118.731 23.2534 117.84 23.2534C116.948 23.2534 116.154 23.1043 115.458 22.8071C114.769 22.5099 114.186 22.0927 113.707 21.5562C113.236 21.0125 112.876 20.3786 112.63 19.6538C112.383 18.9216 112.261 18.1274 112.261 17.272V17.0435C112.261 16.1807 112.383 15.3866 112.63 14.6616C112.876 13.9294 113.236 13.2948 113.707 12.7583C114.178 12.2219 114.759 11.8055 115.447 11.5083C116.136 11.2039 116.926 11.0513 117.817 11.0513ZM103.332 12.5757C103.708 12.1073 104.15 11.7399 104.659 11.4751C105.21 11.1925 105.819 11.0513 106.486 11.0513C107.066 11.0513 107.591 11.1346 108.062 11.3013C108.541 11.4608 108.951 11.722 109.292 12.0845C109.64 12.4396 109.908 12.9071 110.097 13.4868C110.285 14.0668 110.379 14.7707 110.379 15.5972V23.0356H107.226V15.5757C107.226 15.0537 107.149 14.6434 106.997 14.3462C106.852 14.0418 106.638 13.8278 106.355 13.7046C106.08 13.5741 105.739 13.5093 105.333 13.5093C104.884 13.5093 104.5 13.5926 104.181 13.7593C103.869 13.926 103.618 14.1583 103.43 14.4556C103.395 14.5092 103.363 14.5655 103.332 14.6226V23.0356H100.2V6.33154H103.332V12.5757ZM31.5352 17.6411C31.1221 17.6411 30.7634 17.6885 30.459 17.7827C30.1545 17.877 29.9038 18.0111 29.708 18.1851C29.5123 18.3518 29.3677 18.5482 29.2734 18.7729C29.1865 18.9976 29.1426 19.2441 29.1426 19.5122C29.1426 19.7804 29.2049 20.0233 29.3281 20.2407C29.4513 20.4508 29.6286 20.6175 29.8604 20.7407C30.0922 20.8567 30.3642 20.9145 30.6758 20.9146C31.147 20.9146 31.5573 20.8208 31.9053 20.6323C32.2532 20.4438 32.5215 20.2115 32.71 19.936C32.7654 19.8581 32.8113 19.7802 32.8516 19.7046V17.6411H31.5352ZM56.2002 13.4985C55.7581 13.4985 55.381 13.5924 55.0693 13.7808C54.7648 13.9693 54.5141 14.2305 54.3184 14.564C54.1299 14.8902 53.9923 15.2672 53.9053 15.6948C53.8183 16.1153 53.7744 16.565 53.7744 17.0435V17.272C53.7744 17.7649 53.8183 18.2252 53.9053 18.6528C53.9923 19.0805 54.1299 19.4575 54.3184 19.7837C54.5141 20.1027 54.7683 20.3534 55.0801 20.5347C55.3918 20.7158 55.7724 20.8062 56.2217 20.8062C56.6566 20.8061 57.0301 20.7159 57.3418 20.5347C57.6535 20.3534 57.9033 20.1027 58.0918 19.7837C58.2803 19.4574 58.4189 19.0806 58.5059 18.6528C58.6001 18.2252 58.6465 17.7648 58.6465 17.272V17.0435C58.6465 16.565 58.6001 16.1153 58.5059 15.6948C58.4189 15.2671 58.2768 14.8902 58.0811 14.564C57.8926 14.2305 57.6428 13.9692 57.3311 13.7808C57.0194 13.5923 56.6423 13.4986 56.2002 13.4985ZM68.7715 13.4985C68.3294 13.4985 67.9523 13.5924 67.6406 13.7808C67.3361 13.9693 67.0854 14.2305 66.8896 14.564C66.7012 14.8902 66.5635 15.2672 66.4766 15.6948C66.3896 16.1153 66.3467 16.565 66.3467 17.0435V17.272C66.3467 17.7649 66.3896 18.2252 66.4766 18.6528C66.5635 19.0804 66.7012 19.4575 66.8896 19.7837C67.0854 20.1027 67.3396 20.3534 67.6514 20.5347C67.963 20.7158 68.3437 20.8061 68.793 20.8062C69.2278 20.8062 69.6014 20.7158 69.9131 20.5347C70.2248 20.3534 70.4756 20.1027 70.6641 19.7837C70.8525 19.4575 70.9902 19.0804 71.0771 18.6528C71.1714 18.2252 71.2178 17.7649 71.2178 17.272V17.0435C71.2178 16.565 71.1714 16.1153 71.0771 15.6948C70.9901 15.2671 70.8481 14.8902 70.6523 14.564C70.4639 14.2305 70.2141 13.9692 69.9023 13.7808C69.5906 13.5923 69.2136 13.4986 68.7715 13.4985ZM117.817 13.4985C117.375 13.4986 116.998 13.5923 116.687 13.7808C116.382 13.9692 116.132 14.2305 115.937 14.564C115.748 14.8902 115.61 15.2671 115.523 15.6948C115.436 16.1153 115.393 16.565 115.393 17.0435V17.272C115.393 17.7649 115.436 18.2251 115.523 18.6528C115.61 19.0806 115.748 19.4575 115.937 19.7837C116.132 20.1027 116.386 20.3534 116.697 20.5347C117.009 20.7159 117.39 20.8062 117.84 20.8062C118.275 20.8061 118.648 20.7159 118.96 20.5347C119.272 20.3534 119.521 20.1026 119.71 19.7837C119.898 19.4575 120.036 19.0805 120.123 18.6528C120.217 18.2252 120.265 17.7649 120.265 17.272V17.0435C120.265 16.565 120.217 16.1153 120.123 15.6948C120.036 15.2672 119.895 14.8902 119.699 14.564C119.511 14.2305 119.26 13.9693 118.948 13.7808C118.637 13.5924 118.259 13.4985 117.817 13.4985ZM130.52 13.5093C130.092 13.5093 129.725 13.5776 129.421 13.7153C129.124 13.8531 128.881 14.053 128.692 14.314C128.606 14.4339 128.531 14.5652 128.464 14.7065V19.5845C128.63 19.9355 128.865 20.2194 129.171 20.436C129.519 20.6825 129.976 20.8061 130.541 20.8062C130.954 20.8062 131.302 20.7157 131.585 20.5347C131.868 20.3462 132.097 20.0884 132.271 19.7622C132.452 19.436 132.579 19.059 132.651 18.6313C132.731 18.2037 132.77 17.7433 132.771 17.2505V17.022C132.771 16.5217 132.728 16.0606 132.641 15.6401C132.561 15.2125 132.43 14.8389 132.249 14.52C132.075 14.2011 131.843 13.9547 131.553 13.7808C131.27 13.5995 130.925 13.5093 130.52 13.5093ZM43.5088 13.5093C43.0955 13.5093 42.7361 13.603 42.4316 13.7915C42.1345 13.9727 41.8846 14.2236 41.6816 14.5425C41.486 14.8614 41.3378 15.2385 41.2363 15.6733C41.1349 16.101 41.084 16.5648 41.084 17.0649V17.2935C41.084 17.7791 41.1304 18.2324 41.2246 18.6528C41.3189 19.0733 41.4644 19.4467 41.6602 19.7729C41.8631 20.0918 42.1131 20.3417 42.4102 20.5229C42.7147 20.6969 43.0741 20.7847 43.4873 20.7847C44.0599 20.7846 44.5272 20.6645 44.8896 20.4253C45.1684 20.2358 45.3929 19.9925 45.5645 19.6958V14.6274C45.5071 14.5241 45.4467 14.4258 45.3789 14.3354C45.1832 14.0746 44.9298 13.871 44.6182 13.7261C44.3064 13.5811 43.9365 13.5093 43.5088 13.5093ZM81.1904 13.5093C80.7845 13.5093 80.4364 13.603 80.1465 13.7915C79.8565 13.9728 79.6207 14.2235 79.4395 14.5425C79.2656 14.8614 79.1348 15.2385 79.0479 15.6733C78.9681 16.101 78.9287 16.5649 78.9287 17.0649V17.2935C78.9287 17.7792 78.9646 18.2324 79.0371 18.6528C79.1169 19.0733 79.244 19.4467 79.418 19.7729C79.5992 20.0919 79.8315 20.3417 80.1143 20.5229C80.4043 20.6969 80.7557 20.7847 81.1689 20.7847C81.7054 20.7847 82.1481 20.6645 82.4961 20.4253C82.8112 20.202 83.057 19.9038 83.2354 19.5317V14.7817C83.1578 14.6188 83.0673 14.4697 82.9629 14.3354C82.7672 14.0746 82.5208 13.871 82.2236 13.7261C81.9337 13.5812 81.5891 13.5093 81.1904 13.5093Z" fill="#262626"/>
</svg>
