<svg width="118" height="30" viewBox="0 0 118 30" fill="none" xmlns="http://www.w3.org/2000/svg">
<path d="M20.7148 8.71973C21.4978 8.71973 22.1543 8.8643 22.6836 9.1543C23.094 9.37917 23.4461 9.67966 23.7432 10.0527L23.8682 8.9375H26.707V20.3125C26.707 21.3855 26.4677 22.2953 25.9893 23.042C25.518 23.796 24.858 24.3648 24.0098 24.749C23.1615 25.1405 22.1755 25.3369 21.0518 25.3369C20.5589 25.3369 20.0372 25.2711 19.4863 25.1406C18.9426 25.0101 18.4202 24.8077 17.9199 24.5322C17.4271 24.2568 17.0141 23.9086 16.6807 23.4883L18.0615 21.6396C18.424 22.06 18.8449 22.3862 19.3232 22.6182C19.8015 22.8572 20.3305 22.9765 20.9102 22.9766C21.4756 22.9766 21.9542 22.8713 22.3457 22.6611C22.7372 22.4581 23.0388 22.1575 23.249 21.7588C23.4592 21.3673 23.5645 20.8921 23.5645 20.334V19.6855C23.275 20.0115 22.9419 20.279 22.5635 20.4863C22.0415 20.7763 21.4182 20.9218 20.6934 20.9219C19.9684 20.9219 19.3119 20.7728 18.7246 20.4756C18.1447 20.1783 17.6486 19.7611 17.2354 19.2246C16.8222 18.6882 16.5031 18.0578 16.2783 17.333C16.0608 16.608 15.9512 15.8174 15.9512 14.9619V14.7334C15.9512 13.8346 16.0609 13.0192 16.2783 12.2871C16.503 11.5477 16.8177 10.913 17.2236 10.3838C17.6369 9.85454 18.1374 9.4443 18.7246 9.1543C19.3118 8.86432 19.9754 8.71973 20.7148 8.71973ZM109.324 8.71973C110.071 8.71973 110.727 8.8608 111.293 9.14355C111.866 9.4263 112.344 9.83307 112.729 10.3623C113.12 10.8914 113.414 11.5219 113.609 12.2539C113.812 12.9862 113.914 13.7987 113.914 14.6904V14.9189C113.914 15.7741 113.812 16.5678 113.609 17.2998C113.414 18.032 113.123 18.6702 112.739 19.2139C112.355 19.7503 111.876 20.1711 111.304 20.4756C110.738 20.7728 110.085 20.9219 109.346 20.9219C108.628 20.9218 108.005 20.7763 107.476 20.4863C107.095 20.2777 106.758 20.0083 106.464 19.6797V25.2275H103.332V8.9375H106.236L106.353 10.0967C106.671 9.70414 107.042 9.38948 107.465 9.1543C107.994 8.86441 108.614 8.71975 109.324 8.71973ZM9.27441 8.71973C10.1878 8.71973 10.9995 8.87234 11.71 9.17676C12.4204 9.48124 12.9788 9.93791 13.3848 10.5469C13.798 11.1558 14.0048 11.9168 14.0049 12.8301V17.8652C14.0049 18.5104 14.0453 19.0399 14.125 19.4531C14.2048 19.8591 14.3204 20.215 14.4727 20.5195V20.7041H11.3076C11.1647 20.4047 11.0556 20.0346 10.9766 19.5947C10.8647 19.7245 10.7447 19.8527 10.6123 19.9756C10.3078 20.2511 9.94135 20.4789 9.51367 20.6602C9.08594 20.8341 8.57842 20.9219 7.99121 20.9219C7.24446 20.9219 6.56603 20.7728 5.95703 20.4756C5.35546 20.1711 4.87763 19.7537 4.52246 19.2246C4.17456 18.6882 4.00007 18.0797 4 17.3984C4 16.7822 4.1157 16.2343 4.34766 15.7559C4.57963 15.2774 4.92068 14.8751 5.37012 14.5488C5.82674 14.2154 6.39589 13.9656 7.07715 13.7988C7.75861 13.6248 8.5493 13.5371 9.44824 13.5371H10.8516V12.8086C10.8515 12.4317 10.7892 12.109 10.666 11.8408C10.5428 11.5654 10.3508 11.3514 10.0898 11.1992C9.83615 11.047 9.50642 10.9707 9.10059 10.9707C8.75259 10.9707 8.45102 11.032 8.19727 11.1553C7.94362 11.2713 7.74806 11.4423 7.61035 11.667C7.47267 11.8845 7.4043 12.1423 7.4043 12.4395H4.27148C4.27148 11.9392 4.38816 11.4641 4.62012 11.0146C4.85207 10.5652 5.18875 10.1698 5.63086 9.8291C6.07306 9.48114 6.59909 9.20942 7.20801 9.01367C7.82426 8.81792 8.51316 8.71973 9.27441 8.71973ZM34.2002 8.71973C35.0917 8.71976 35.8852 8.87238 36.5811 9.17676C37.2769 9.47394 37.8608 9.89044 38.332 10.4268C38.8105 10.9632 39.1734 11.5979 39.4199 12.3301C39.6664 13.0551 39.79 13.8492 39.79 14.7119V14.9404C39.79 15.7959 39.6664 16.5901 39.4199 17.3223C39.1734 18.0471 38.8104 18.681 38.332 19.2246C37.8609 19.761 37.2814 20.1783 36.5928 20.4756C35.904 20.7728 35.1134 20.9219 34.2217 20.9219C33.3299 20.9219 32.5358 20.7728 31.8398 20.4756C31.1512 20.1783 30.5673 19.7611 30.0889 19.2246C29.6179 18.681 29.2591 18.0469 29.0127 17.3223C28.7662 16.5901 28.6426 15.7959 28.6426 14.9404V14.7119C28.6426 13.8492 28.7662 13.0551 29.0127 12.3301C29.2592 11.5979 29.6177 10.9632 30.0889 10.4268C30.5601 9.89033 31.1404 9.47399 31.8291 9.17676C32.5179 8.87226 33.3084 8.71973 34.2002 8.71973ZM46.7715 8.71973C47.6632 8.71974 48.4573 8.87227 49.1533 9.17676C49.8492 9.474 50.4331 9.89035 50.9043 10.4268C51.3828 10.9632 51.7447 11.5979 51.9912 12.3301C52.2377 13.0551 52.3613 13.8492 52.3613 14.7119V14.9404C52.3613 15.7959 52.2377 16.5901 51.9912 17.3223C51.7448 18.0469 51.3825 18.6811 50.9043 19.2246C50.4331 19.7611 49.8527 20.1783 49.1641 20.4756C48.4753 20.7728 47.6847 20.9219 46.793 20.9219C45.9013 20.9219 45.1071 20.7728 44.4111 20.4756C43.7225 20.1783 43.1386 19.761 42.6602 19.2246C42.1892 18.681 41.8304 18.0469 41.584 17.3223C41.3375 16.5901 41.2139 15.7959 41.2139 14.9404V14.7119C41.2139 13.8492 41.3375 13.0551 41.584 12.3301C41.8305 11.5979 42.1889 10.9632 42.6602 10.4268C43.1313 9.89033 43.7118 9.474 44.4004 9.17676C45.0891 8.87226 45.8797 8.71973 46.7715 8.71973ZM64.3887 20.7041H61.5508L61.3955 19.4482C61.0593 19.8841 60.6622 20.2307 60.2021 20.4863C59.6801 20.7763 59.071 20.9219 58.375 20.9219C57.6429 20.9219 56.9906 20.7727 56.418 20.4756C55.8525 20.1783 55.3739 19.7611 54.9824 19.2246C54.5983 18.6882 54.3046 18.0578 54.1016 17.333C53.8986 16.608 53.7969 15.8174 53.7969 14.9619V14.7334C53.7969 13.8346 53.8986 13.0192 54.1016 12.2871C54.3046 11.5476 54.6017 10.913 54.9932 10.3838C55.3847 9.85455 55.8667 9.44429 56.4395 9.1543C57.0121 8.86445 57.6645 8.71976 58.3965 8.71973C59.0852 8.71973 59.6874 8.86433 60.2021 9.1543C60.5909 9.37026 60.9351 9.65515 61.2354 10.0078V4H64.3887V20.7041ZM71.2832 8.71973C72.3053 8.71973 73.1829 8.88283 73.915 9.20898C74.6545 9.53523 75.2208 9.98487 75.6123 10.5576C76.0109 11.123 76.2099 11.7683 76.21 12.4932H73.0781C73.0781 12.1887 73.0123 11.9169 72.8818 11.6777C72.7586 11.4313 72.5631 11.2393 72.2949 11.1016C72.0339 10.9566 71.693 10.8838 71.2725 10.8838C70.9247 10.8838 70.6238 10.9452 70.3701 11.0684C70.1165 11.1843 69.9209 11.3441 69.7832 11.5469C69.6527 11.7426 69.5869 11.9609 69.5869 12.2002C69.587 12.3813 69.6238 12.5446 69.6963 12.6895C69.776 12.8269 69.9026 12.9535 70.0762 13.0693C70.2502 13.1853 70.4755 13.295 70.751 13.3965C71.0337 13.4907 71.3818 13.5775 71.7949 13.6572C72.643 13.8312 73.4005 14.0591 74.0674 14.3418C74.7342 14.6172 75.2638 14.9943 75.6553 15.4727C76.0468 15.9439 76.2422 16.5645 76.2422 17.333C76.2421 17.8549 76.1265 18.3336 75.8945 18.7686C75.6626 19.2034 75.3293 19.584 74.8945 19.9102C74.4596 20.2291 73.9371 20.4789 73.3281 20.6602C72.7265 20.8341 72.0488 20.9218 71.2949 20.9219C70.2002 20.9219 69.272 20.7255 68.5107 20.334C67.7568 19.9425 67.1835 19.4464 66.792 18.8447C66.4077 18.2357 66.2158 17.6116 66.2158 16.9736H69.1846C69.1991 17.4013 69.3079 17.7459 69.5107 18.0068C69.7209 18.2678 69.9858 18.4563 70.3047 18.5723C70.6308 18.6882 70.9825 18.7461 71.3594 18.7461C71.7654 18.7461 72.1028 18.6918 72.3711 18.583C72.6393 18.467 72.8427 18.3154 72.9805 18.127C73.1255 17.9312 73.1973 17.7059 73.1973 17.4521C73.1972 17.2276 73.1323 17.0249 73.002 16.8438C72.8715 16.6625 72.6287 16.495 72.2734 16.3428C71.9255 16.1833 71.4214 16.0387 70.7617 15.9082C70.1672 15.7777 69.6124 15.6147 69.0977 15.4189C68.5904 15.216 68.1484 14.973 67.7715 14.6904C67.4017 14.4077 67.1116 14.0737 66.9014 13.6895C66.6911 13.298 66.5859 12.8518 66.5859 12.3516C66.586 11.8587 66.6912 11.3948 66.9014 10.96C67.1188 10.5251 67.4266 10.141 67.8252 9.80762C68.2312 9.46687 68.7247 9.20217 69.3047 9.01367C69.8918 8.818 70.5512 8.71976 71.2832 8.71973ZM95.8174 8.71973C96.7091 8.71973 97.5032 8.87226 98.1992 9.17676C98.8951 9.47397 99.479 9.89036 99.9502 10.4268C100.429 10.9633 100.792 11.5978 101.038 12.3301C101.285 13.0551 101.407 13.8492 101.407 14.7119V14.9404C101.407 15.7959 101.285 16.5901 101.038 17.3223C100.792 18.0471 100.429 18.681 99.9502 19.2246C99.4789 19.7611 98.8987 20.1783 98.21 20.4756C97.5214 20.7727 96.7313 20.9218 95.8398 20.9219C94.9482 20.9219 94.154 20.7728 93.458 20.4756C92.7693 20.1783 92.1855 19.7611 91.707 19.2246C91.2359 18.681 90.8764 18.0471 90.6299 17.3223C90.3834 16.5901 90.2608 15.7959 90.2607 14.9404V14.7119C90.2607 13.8492 90.3834 13.0551 90.6299 12.3301C90.8764 11.5978 91.2358 10.9632 91.707 10.4268C92.1782 9.89039 92.7586 9.47396 93.4473 9.17676C94.1359 8.87235 94.9258 8.71976 95.8174 8.71973ZM81.332 10.2441C81.7078 9.7758 82.1499 9.40838 82.6592 9.14355C83.2101 8.86093 83.8195 8.71973 84.4863 8.71973C85.066 8.71977 85.5914 8.80308 86.0625 8.96973C86.541 9.12923 86.9512 9.39043 87.292 9.75293C87.6398 10.1081 87.9082 10.5755 88.0967 11.1553C88.2852 11.7353 88.3789 12.4391 88.3789 13.2656V20.7041H85.2256V13.2441C85.2256 12.7221 85.1493 12.3119 84.9971 12.0146C84.8521 11.7102 84.6382 11.4963 84.3555 11.373C84.08 11.2425 83.739 11.1777 83.333 11.1777C82.8836 11.1777 82.4996 11.2611 82.1807 11.4277C81.8689 11.5945 81.6182 11.8268 81.4297 12.124C81.3948 12.1776 81.3634 12.2339 81.332 12.291V20.7041H78.2002V4H81.332V10.2441ZM9.53516 15.3096C9.12212 15.3096 8.76337 15.357 8.45898 15.4512C8.15448 15.5454 7.90376 15.6795 7.70801 15.8535C7.51231 16.0202 7.36767 16.2167 7.27344 16.4414C7.18652 16.6661 7.14258 16.9125 7.14258 17.1807C7.1426 17.4488 7.2049 17.6917 7.32812 17.9092C7.45132 18.1192 7.62857 18.286 7.86035 18.4092C8.09224 18.5251 8.36423 18.5829 8.67578 18.583C9.14703 18.583 9.55727 18.4893 9.90527 18.3008C10.2532 18.1123 10.5215 17.88 10.71 17.6045C10.7654 17.5265 10.8113 17.4487 10.8516 17.373V15.3096H9.53516ZM34.2002 11.167C33.7581 11.167 33.381 11.2609 33.0693 11.4492C32.7648 11.6377 32.5141 11.8989 32.3184 12.2324C32.1299 12.5586 31.9923 12.9356 31.9053 13.3633C31.8183 13.7838 31.7744 14.2334 31.7744 14.7119V14.9404C31.7744 15.4333 31.8183 15.8936 31.9053 16.3213C31.9923 16.7489 32.1299 17.126 32.3184 17.4521C32.5141 17.7711 32.7683 18.0219 33.0801 18.2031C33.3918 18.3842 33.7724 18.4746 34.2217 18.4746C34.6566 18.4746 35.0301 18.3843 35.3418 18.2031C35.6535 18.0219 35.9033 17.7711 36.0918 17.4521C36.2803 17.1259 36.4189 16.749 36.5059 16.3213C36.6001 15.8936 36.6465 15.4333 36.6465 14.9404V14.7119C36.6465 14.2334 36.6001 13.7838 36.5059 13.3633C36.4189 12.9355 36.2768 12.5587 36.0811 12.2324C35.8926 11.899 35.6428 11.6377 35.3311 11.4492C35.0194 11.2608 34.6423 11.167 34.2002 11.167ZM46.7715 11.167C46.3294 11.167 45.9523 11.2608 45.6406 11.4492C45.3361 11.6377 45.0854 11.8989 44.8896 12.2324C44.7012 12.5586 44.5635 12.9356 44.4766 13.3633C44.3896 13.7838 44.3467 14.2334 44.3467 14.7119V14.9404C44.3467 15.4333 44.3896 15.8936 44.4766 16.3213C44.5635 16.7489 44.7012 17.126 44.8896 17.4521C45.0854 17.7711 45.3396 18.0219 45.6514 18.2031C45.963 18.3843 46.3437 18.4746 46.793 18.4746C47.2278 18.4746 47.6014 18.3843 47.9131 18.2031C48.2248 18.0219 48.4756 17.7711 48.6641 17.4521C48.8525 17.126 48.9902 16.7489 49.0771 16.3213C49.1714 15.8936 49.2178 15.4333 49.2178 14.9404V14.7119C49.2178 14.2334 49.1714 13.7838 49.0771 13.3633C48.9901 12.9355 48.8481 12.5587 48.6523 12.2324C48.4639 11.899 48.2141 11.6377 47.9023 11.4492C47.5906 11.2608 47.2136 11.167 46.7715 11.167ZM95.8174 11.167C95.3752 11.167 94.9982 11.2608 94.6865 11.4492C94.3821 11.6377 94.1323 11.899 93.9365 12.2324C93.748 12.5586 93.6104 12.9356 93.5234 13.3633C93.4364 13.7838 93.3926 14.2334 93.3926 14.7119V14.9404C93.3926 15.4334 93.4364 15.8936 93.5234 16.3213C93.6104 16.749 93.748 17.1259 93.9365 17.4521C94.1323 17.7711 94.3855 18.0219 94.6973 18.2031C95.009 18.3844 95.3903 18.4746 95.8398 18.4746C96.2746 18.4745 96.6483 18.3843 96.96 18.2031C97.2716 18.0219 97.5215 17.7711 97.71 17.4521C97.8984 17.1259 98.0361 16.749 98.123 16.3213C98.2173 15.8936 98.2646 15.4333 98.2646 14.9404V14.7119C98.2646 14.2334 98.2173 13.7838 98.123 13.3633C98.0361 12.9356 97.8949 12.5586 97.6992 12.2324C97.5107 11.8989 97.26 11.6377 96.9482 11.4492C96.6366 11.2609 96.2595 11.167 95.8174 11.167ZM108.52 11.1777C108.092 11.1777 107.725 11.246 107.421 11.3838C107.124 11.5215 106.881 11.7215 106.692 11.9824C106.606 12.1023 106.531 12.2337 106.464 12.375V17.2529C106.63 17.604 106.865 17.8878 107.171 18.1045C107.519 18.3509 107.976 18.4746 108.541 18.4746C108.954 18.4746 109.302 18.3842 109.585 18.2031C109.868 18.0146 110.097 17.7569 110.271 17.4307C110.452 17.1044 110.579 16.7275 110.651 16.2998C110.731 15.8722 110.77 15.4118 110.771 14.9189V14.6904C110.771 14.1902 110.728 13.7291 110.641 13.3086C110.561 12.881 110.43 12.5074 110.249 12.1885C110.075 11.8696 109.843 11.6232 109.553 11.4492C109.27 11.268 108.925 11.1777 108.52 11.1777ZM21.5088 11.1777C21.0955 11.1777 20.7361 11.2715 20.4316 11.46C20.1345 11.6412 19.8846 11.892 19.6816 12.2109C19.486 12.5299 19.3378 12.9069 19.2363 13.3418C19.1349 13.7695 19.084 14.2333 19.084 14.7334V14.9619C19.084 15.4476 19.1304 15.9008 19.2246 16.3213C19.3189 16.7418 19.4644 17.1152 19.6602 17.4414C19.8631 17.7603 20.1131 18.0102 20.4102 18.1914C20.7147 18.3654 21.0741 18.4531 21.4873 18.4531C22.0599 18.4531 22.5272 18.3329 22.8896 18.0938C23.1684 17.9042 23.3929 17.6609 23.5645 17.3643V12.2959C23.5071 12.1925 23.4467 12.0942 23.3789 12.0039C23.1832 11.743 22.9298 11.5395 22.6182 11.3945C22.3064 11.2495 21.9365 11.1777 21.5088 11.1777ZM59.1904 11.1777C58.7845 11.1778 58.4364 11.2715 58.1465 11.46C57.8565 11.6412 57.6207 11.8919 57.4395 12.2109C57.2656 12.5299 57.1348 12.907 57.0479 13.3418C56.9681 13.7694 56.9287 14.2333 56.9287 14.7334V14.9619C56.9287 15.4476 56.9646 15.9008 57.0371 16.3213C57.1169 16.7418 57.244 17.1152 57.418 17.4414C57.5992 17.7604 57.8315 18.0102 58.1143 18.1914C58.4043 18.3654 58.7557 18.4531 59.1689 18.4531C59.7054 18.4531 60.1481 18.333 60.4961 18.0938C60.8112 17.8704 61.057 17.5722 61.2354 17.2002V12.4502C61.1578 12.2872 61.0673 12.1381 60.9629 12.0039C60.7672 11.743 60.5208 11.5395 60.2236 11.3945C59.9337 11.2496 59.5891 11.1777 59.1904 11.1777Z" fill="#262626"/>
</svg>
